<svg xmlns="http://www.w3.org/2000/svg" viewBox="0 0 200 200" fill="none"><defs><linearGradient id="sky" x1="50" y1="165" x2="160" y2="40" gradientUnits="userSpaceOnUse"><stop stop-color="#0284C7"/><stop offset="1" stop-color="#22D3EE"/></linearGradient><linearGradient id="forge" x1="154" y1="42" x2="190" y2="76" gradientUnits="userSpaceOnUse"><stop stop-color="#F97316"/><stop offset="1" stop-color="#FBBF24"/></linearGradient></defs><path d="M60 153V52h53c31 0 50 17 50 44 0 23-14 38-36 43l39 30" stroke="url(#sky)" stroke-width="17" stroke-linecap="round" stroke-linejoin="round"/><path d="M60 104h68M60 153l49-49 45-42" stroke="url(#sky)" stroke-width="10" stroke-linecap="round" stroke-linejoin="round"/><circle cx="60" cy="153" r="14" fill="#020617" stroke="#38BDF8" stroke-width="7"/><circle cx="109" cy="104" r="15" fill="#020617" stroke="#38BDF8" stroke-width="7"/><circle cx="154" cy="62" r="16" fill="url(#forge)"/><path d="m171 30 5 13 13 5-13 5-5 13-5-13-13-5 13-5 5-13Z" fill="#FBBF24"/></svg>
