<svg xmlns="http://www.w3.org/2000/svg" viewBox="0 0 420 120" fill="none"><defs><linearGradient id="sky" x1="32" y1="101" x2="96" y2="20" gradientUnits="userSpaceOnUse"><stop stop-color="#0284C7"/><stop offset="1" stop-color="#22D3EE"/></linearGradient><linearGradient id="forge" x1="94" y1="26" x2="118" y2="52" gradientUnits="userSpaceOnUse"><stop stop-color="#F97316"/><stop offset="1" stop-color="#FBBF24"/></linearGradient></defs><rect width="120" height="120" rx="28" fill="#020617"/><path d="M36 92V31h32c19 0 31 10 31 27 0 14-9 23-22 26l24 19" stroke="url(#sky)" stroke-width="10" stroke-linecap="round" stroke-linejoin="round"/><path d="M36 62h42M36 92l30-30 27-25" stroke="url(#sky)" stroke-width="6" stroke-linecap="round" stroke-linejoin="round"/><circle cx="36" cy="92" r="8" fill="#020617" stroke="#38BDF8" stroke-width="4"/><circle cx="66" cy="62" r="9" fill="#020617" stroke="#38BDF8" stroke-width="4"/><circle cx="94" cy="37" r="10" fill="url(#forge)"/><path d="m104 18 3 8 8 3-8 3-3 8-3-8-8-3 8-3 3-8Z" fill="#FBBF24"/><text x="144" y="74" font-family="Inter, ui-sans-serif, system-ui, sans-serif" font-size="48" font-weight="700" fill="#020617" letter-spacing="-1.2">Routine<tspan fill="#f97316">Forge</tspan></text></svg>
