<svg width="1200" height="630" viewBox="0 0 1200 630" fill="none" xmlns="http://www.w3.org/2000/svg">
  <rect width="1200" height="630" rx="36" fill="#071126"/>
  <rect x="70" y="70" width="1060" height="490" rx="30" fill="url(#paint0_linear)"/>
  <path d="M186 376C220 286 315 240 395 260C470 278 490 338 546 352C602 366 663 324 732 310C804 296 853 328 934 352" stroke="#7DD3FC" stroke-width="12" stroke-linecap="round"/>
  <circle cx="215" cy="378" r="22" fill="#38BDF8"/>
  <circle cx="395" cy="260" r="20" fill="#38BDF8"/>
  <circle cx="552" cy="352" r="20" fill="#38BDF8"/>
  <circle cx="733" cy="310" r="20" fill="#38BDF8"/>
  <circle cx="934" cy="352" r="20" fill="#38BDF8"/>
  <rect x="250" y="192" width="230" height="76" rx="20" fill="white" fill-opacity="0.95"/>
  <rect x="520" y="154" width="210" height="68" rx="20" fill="white" fill-opacity="0.9"/>
  <rect x="750" y="186" width="170" height="74" rx="20" fill="white" fill-opacity="0.95"/>
  <text x="282" y="237" fill="#071126" font-family="Arial, sans-serif" font-size="28" font-weight="700">CortexFlow</text>
  <text x="115" y="468" fill="white" font-family="Arial, sans-serif" font-size="44" font-weight="700">AI automation for modern teams</text>
  <defs>
    <linearGradient id="paint0_linear" x1="70" y1="70" x2="1130" y2="560" gradientUnits="userSpaceOnUse">
      <stop stop-color="#0F172A"/>
      <stop offset="1" stop-color="#172554"/>
    </linearGradient>
  </defs>
</svg>
